<svg width="48" height="48" viewBox="0 0 48 48" fill="none" xmlns="http://www.w3.org/2000/svg">
<path d="M44.8125 10.305C44.8085 8.92519 44.3163 7.5913 43.4231 6.5396C42.5299 5.48791 41.2933 4.78628 39.9323 4.559C38.5714 4.33173 37.1739 4.59346 35.9874 5.29786C34.8009 6.00226 33.902 7.10385 33.4499 8.40751L14.655 8.34751C14.5643 7.27372 14.1781 6.246 13.5392 5.37828C12.9002 4.51055 12.0334 3.83672 11.0349 3.43148C10.0364 3.02624 8.94517 2.90543 7.88221 3.08242C6.81924 3.25942 5.82605 3.72732 5.01273 4.43425C4.19942 5.14118 3.59776 6.05953 3.27444 7.08749C2.95112 8.11545 2.91879 9.21286 3.18101 10.2581C3.44324 11.3033 3.98978 12.2555 4.76005 13.0091C5.53033 13.7627 6.49425 14.2882 7.54495 14.5275L10.8599 34.14C10.0105 34.6476 9.30407 35.363 8.80715 36.2187C8.31022 37.0745 8.03911 38.0426 8.0193 39.032C7.99949 40.0214 8.23163 40.9996 8.6939 41.8745C9.15617 42.7495 9.83337 43.4925 10.6618 44.0338C11.4903 44.575 12.4428 44.8966 13.4298 44.9684C14.4168 45.0402 15.4058 44.8598 16.3039 44.4442C17.2019 44.0286 17.9795 43.3914 18.5636 42.5925C19.1476 41.7936 19.5189 40.8593 19.6425 39.8775L31.5 36.435C31.9928 37.221 32.666 37.8782 33.4637 38.352C34.2614 38.8258 35.1605 39.1026 36.0866 39.1593C37.0126 39.2161 37.9388 39.0512 38.7884 38.6783C39.6379 38.3055 40.3864 37.7355 40.9715 37.0155C41.5567 36.2955 41.9617 35.4464 42.1531 34.5386C42.3444 33.6308 42.3165 32.6904 42.0717 31.7955C41.8269 30.9006 41.3722 30.077 40.7453 29.393C40.1185 28.709 39.3376 28.1843 38.4674 27.8625L40.26 15.99C41.551 15.6991 42.7048 14.978 43.5321 13.945C44.3593 12.912 44.8108 11.6284 44.8125 10.305ZM32.925 28.6875L25.1474 24.2775C25.2981 23.7557 25.3764 23.2156 25.38 22.6725C25.3771 22.0315 25.2682 21.3954 25.0575 20.79L35.0024 14.58C35.6446 15.1806 36.4135 15.6292 37.2524 15.8925L35.505 27.57C34.5658 27.7234 33.6793 28.1073 32.925 28.6875ZM33.3899 12.045L23.3925 18.2925C22.5618 17.5561 21.5378 17.073 20.4413 16.9002C19.3448 16.7274 18.2217 16.8722 17.205 17.3175L13.5599 12.2625C13.7681 11.9736 13.9512 11.6675 14.1074 11.3475L33.2325 11.4075C33.2775 11.625 33.33 11.835 33.3899 12.045ZM16.695 22.6725C16.692 22.1097 16.8562 21.5586 17.1667 21.0892C17.4772 20.6198 17.9201 20.2532 18.4392 20.0357C18.9584 19.8183 19.5304 19.7598 20.0827 19.8678C20.6351 19.9758 21.143 20.2453 21.542 20.6422C21.9411 21.0392 22.2133 21.5456 22.3242 22.0974C22.4351 22.6492 22.3797 23.2215 22.165 23.7418C21.9503 24.2621 21.586 24.7069 21.1182 25.0199C20.6504 25.3329 20.1003 25.5 19.5374 25.5C18.7862 25.5 18.0654 25.2026 17.5328 24.6728C17.0001 24.1429 16.6989 23.4238 16.695 22.6725ZM39 7.50001C39.5621 7.50001 40.1117 7.66672 40.5792 7.97905C41.0466 8.29139 41.4109 8.73533 41.6261 9.25473C41.8412 9.77413 41.8975 10.3457 41.7878 10.897C41.6782 11.4484 41.4074 11.9549 41.0099 12.3525C40.6124 12.75 40.1059 13.0207 39.5545 13.1304C39.0031 13.2401 38.4316 13.1838 37.9122 12.9686C37.3928 12.7535 36.9488 12.3892 36.6365 11.9217C36.3242 11.4543 36.1574 10.9047 36.1574 10.3425C36.1574 9.58863 36.4569 8.86563 36.99 8.33255C37.5231 7.79948 38.2461 7.50001 39 7.50001ZM5.99995 8.83501C5.99995 8.27281 6.16666 7.72324 6.479 7.2558C6.79133 6.78835 7.23527 6.42402 7.75467 6.20888C8.27407 5.99374 8.8456 5.93745 9.39699 6.04712C9.94838 6.1568 10.4549 6.42752 10.8524 6.82505C11.2499 7.22259 11.5207 7.72907 11.6303 8.28046C11.74 8.83185 11.6837 9.40338 11.4686 9.92278C11.2534 10.4422 10.8891 10.8861 10.4217 11.1985C9.95421 11.5108 9.40464 11.6775 8.84245 11.6775C8.08857 11.6775 7.36557 11.378 6.8325 10.845C6.29943 10.3119 5.99995 9.58888 5.99995 8.83501ZM10.5674 14.415C10.7956 14.3457 11.0187 14.2605 11.2349 14.16L14.8574 19.1925C14.385 19.823 14.0454 20.5428 13.8594 21.3084C13.6733 22.0739 13.6446 22.8693 13.7751 23.6463C13.9055 24.4233 14.1923 25.1657 14.6182 25.8285C15.044 26.4914 15.6 27.0609 16.2524 27.5025L14.3174 33.33C14.1599 33.33 14.0099 33.33 13.8524 33.33H13.7624L10.5674 14.415ZM13.8524 42C13.2899 42 12.7401 41.8331 12.2725 41.5204C11.8049 41.2078 11.4405 40.7634 11.2256 40.2435C11.0107 39.7237 10.9548 39.1518 11.0651 38.6002C11.1754 38.0486 11.4469 37.5421 11.8452 37.1449C12.2434 36.7477 12.7506 36.4775 13.3025 36.3687C13.8544 36.2599 14.4262 36.3172 14.9454 36.5335C15.4647 36.7498 15.9081 37.1153 16.2196 37.5838C16.531 38.0522 16.6964 38.6025 16.695 39.165C16.693 39.9176 16.3926 40.6387 15.8598 41.1701C15.3269 41.7016 14.605 42 13.8524 42ZM19.2374 36.8925C18.799 35.8594 18.0726 34.9742 17.145 34.3425L19.0875 28.5C19.2375 28.5 19.3799 28.5 19.5374 28.5C21.0569 28.4993 22.5158 27.9044 23.6024 26.8425L31.1025 31.065C30.8067 31.7783 30.6538 32.5428 30.6524 33.315C30.6524 33.3975 30.6524 33.4725 30.6524 33.555L19.2374 36.8925ZM36.4874 36.1875C35.9253 36.1875 35.3757 36.0208 34.9082 35.7085C34.4408 35.3961 34.0765 34.9522 33.8613 34.4328C33.6462 33.9134 33.5899 33.3419 33.6996 32.7905C33.8092 32.2391 34.08 31.7326 34.4775 31.3351C34.875 30.9375 35.3815 30.6668 35.9329 30.5571C36.4843 30.4474 37.0558 30.5037 37.5752 30.7189C38.0946 30.934 38.5386 31.2984 38.8509 31.7658C39.1632 32.2332 39.3299 32.7828 39.3299 33.345C39.328 33.7196 39.252 34.09 39.1064 34.4351C38.9608 34.7802 38.7484 35.0932 38.4815 35.3559C38.2146 35.6187 37.8983 35.8261 37.551 35.9662C37.2036 36.1064 36.832 36.1765 36.4575 36.1725L36.4874 36.1875Z" fill="#0055DC"/>
</svg>
